# xmcd
#
# Track frame offsets: 
#        150
#        674
#        19426
#        34949
#        50800
#        67636
#        83066
#        101169
#        118538
#        134387
#        154550
#        174613
#        192673
#        210627
#        226268
#        246289
#        259447
#        273399
#        287184
#        302960
#        320201
#
# Disc length: 4437 seconds
#
# Revision: 0
# Processed by: cddbd v1.5.2PL0 Copyright (c) Steve Scherf et al.
# Submitted via: ExactAudioCopy v0.99pb4
#
DISCID=3b115315
DTITLE=Various Artist - prevue promo 1050A-1
DYEAR=2000
DGENRE=pop
TTITLE0=nk - data
TTITLE1=Billy Gilman - One Voice 
TTITLE2=Savage Garden - Affirmation
TTITLE3=Eiffel 65 - Too Much Of Heaven
TTITLE4=Enrique Iglesias - Sad Eyes (Guy Roche Mix)
TTITLE5=Chumbawamba - Pass It Along
TTITLE6=Lee Ann Womack - I Hope You Dance(AC remix)
TTITLE7=Rosabel Feat.  Debbie Jacobs Rock - Don't You Want My Love
TTITLE8=Mystery Artist - Diamond Light
TTITLE9=Monifah - NaNa
TTITLE10=Little Feat - Euia
TTITLE11=David Wilcox - Soul Song 
TTITLE12=Sting - After The Rain Has Fallen
TTITLE13=Guster - Happier
TTITLE14=Supergrass - Moving
TTITLE15=1 Plus 1 - Cherry Bomb
TTITLE16=Bad Religion -  I Love My Computer
TTITLE17=Primer55 - Loose
TTITLE18=Ultraspank - Where 
TTITLE19=Something 5 - On The Wall 
TTITLE20=Green Day - Minority 
EXTD=
EXTT0=
EXTT1=
EXTT2=
EXTT3=
EXTT4=
EXTT5=
EXTT6=
EXTT7=
EXTT8=
EXTT9=
EXTT10=
EXTT11=
EXTT12=
EXTT13=
EXTT14=
EXTT15=
EXTT16=
EXTT17=
EXTT18=
EXTT19=
EXTT20=
PLAYORDER=
